<svg width="60" height="60" viewBox="0 0 60 60" fill="none" xmlns="http://www.w3.org/2000/svg">
<path d="M45 3.75C45.9946 3.75 46.9484 4.14509 47.6516 4.84835C48.3549 5.55161 48.75 6.50544 48.75 7.5V52.5C48.75 53.4946 48.3549 54.4484 47.6516 55.1516C46.9484 55.8549 45.9946 56.25 45 56.25H15C14.0054 56.25 13.0516 55.8549 12.3483 55.1516C11.6451 54.4484 11.25 53.4946 11.25 52.5V7.5C11.25 6.50544 11.6451 5.55161 12.3483 4.84835C13.0516 4.14509 14.0054 3.75 15 3.75H45ZM15 0C13.0109 0 11.1032 0.790176 9.6967 2.1967C8.29018 3.60322 7.5 5.51088 7.5 7.5V52.5C7.5 54.4891 8.29018 56.3968 9.6967 57.8033C11.1032 59.2098 13.0109 60 15 60H45C46.9891 60 48.8968 59.2098 50.3033 57.8033C51.7098 56.3968 52.5 54.4891 52.5 52.5V7.5C52.5 5.51088 51.7098 3.60322 50.3033 2.1967C48.8968 0.790176 46.9891 0 45 0L15 0Z" fill="white"/>
<path d="M15 9.375C15 8.87772 15.1975 8.40081 15.5492 8.04918C15.9008 7.69754 16.3777 7.5 16.875 7.5H43.125C43.6223 7.5 44.0992 7.69754 44.4508 8.04918C44.8025 8.40081 45 8.87772 45 9.375V16.875C45 17.3723 44.8025 17.8492 44.4508 18.2008C44.0992 18.5525 43.6223 18.75 43.125 18.75H16.875C16.3777 18.75 15.9008 18.5525 15.5492 18.2008C15.1975 17.8492 15 17.3723 15 16.875V9.375ZM15 24.375C15 23.8777 15.1975 23.4008 15.5492 23.0492C15.9008 22.6975 16.3777 22.5 16.875 22.5H20.625C21.1223 22.5 21.5992 22.6975 21.9508 23.0492C22.3025 23.4008 22.5 23.8777 22.5 24.375V28.125C22.5 28.6223 22.3025 29.0992 21.9508 29.4508C21.5992 29.8025 21.1223 30 20.625 30H16.875C16.3777 30 15.9008 29.8025 15.5492 29.4508C15.1975 29.0992 15 28.6223 15 28.125V24.375ZM15 35.625C15 35.1277 15.1975 34.6508 15.5492 34.2992C15.9008 33.9475 16.3777 33.75 16.875 33.75H20.625C21.1223 33.75 21.5992 33.9475 21.9508 34.2992C22.3025 34.6508 22.5 35.1277 22.5 35.625V39.375C22.5 39.8723 22.3025 40.3492 21.9508 40.7008C21.5992 41.0525 21.1223 41.25 20.625 41.25H16.875C16.3777 41.25 15.9008 41.0525 15.5492 40.7008C15.1975 40.3492 15 39.8723 15 39.375V35.625ZM15 46.875C15 46.3777 15.1975 45.9008 15.5492 45.5492C15.9008 45.1975 16.3777 45 16.875 45H20.625C21.1223 45 21.5992 45.1975 21.9508 45.5492C22.3025 45.9008 22.5 46.3777 22.5 46.875V50.625C22.5 51.1223 22.3025 51.5992 21.9508 51.9508C21.5992 52.3025 21.1223 52.5 20.625 52.5H16.875C16.3777 52.5 15.9008 52.3025 15.5492 51.9508C15.1975 51.5992 15 51.1223 15 50.625V46.875ZM26.25 24.375C26.25 23.8777 26.4475 23.4008 26.7992 23.0492C27.1508 22.6975 27.6277 22.5 28.125 22.5H31.875C32.3723 22.5 32.8492 22.6975 33.2008 23.0492C33.5525 23.4008 33.75 23.8777 33.75 24.375V28.125C33.75 28.6223 33.5525 29.0992 33.2008 29.4508C32.8492 29.8025 32.3723 30 31.875 30H28.125C27.6277 30 27.1508 29.8025 26.7992 29.4508C26.4475 29.0992 26.25 28.6223 26.25 28.125V24.375ZM26.25 35.625C26.25 35.1277 26.4475 34.6508 26.7992 34.2992C27.1508 33.9475 27.6277 33.75 28.125 33.75H31.875C32.3723 33.75 32.8492 33.9475 33.2008 34.2992C33.5525 34.6508 33.75 35.1277 33.75 35.625V39.375C33.75 39.8723 33.5525 40.3492 33.2008 40.7008C32.8492 41.0525 32.3723 41.25 31.875 41.25H28.125C27.6277 41.25 27.1508 41.0525 26.7992 40.7008C26.4475 40.3492 26.25 39.8723 26.25 39.375V35.625ZM26.25 46.875C26.25 46.3777 26.4475 45.9008 26.7992 45.5492C27.1508 45.1975 27.6277 45 28.125 45H31.875C32.3723 45 32.8492 45.1975 33.2008 45.5492C33.5525 45.9008 33.75 46.3777 33.75 46.875V50.625C33.75 51.1223 33.5525 51.5992 33.2008 51.9508C32.8492 52.3025 32.3723 52.5 31.875 52.5H28.125C27.6277 52.5 27.1508 52.3025 26.7992 51.9508C26.4475 51.5992 26.25 51.1223 26.25 50.625V46.875ZM37.5 24.375C37.5 23.8777 37.6975 23.4008 38.0492 23.0492C38.4008 22.6975 38.8777 22.5 39.375 22.5H43.125C43.6223 22.5 44.0992 22.6975 44.4508 23.0492C44.8025 23.4008 45 23.8777 45 24.375V28.125C45 28.6223 44.8025 29.0992 44.4508 29.4508C44.0992 29.8025 43.6223 30 43.125 30H39.375C38.8777 30 38.4008 29.8025 38.0492 29.4508C37.6975 29.0992 37.5 28.6223 37.5 28.125V24.375ZM37.5 35.625C37.5 35.1277 37.6975 34.6508 38.0492 34.2992C38.4008 33.9475 38.8777 33.75 39.375 33.75H43.125C43.6223 33.75 44.0992 33.9475 44.4508 34.2992C44.8025 34.6508 45 35.1277 45 35.625V50.625C45 51.1223 44.8025 51.5992 44.4508 51.9508C44.0992 52.3025 43.6223 52.5 43.125 52.5H39.375C38.8777 52.5 38.4008 52.3025 38.0492 51.9508C37.6975 51.5992 37.5 51.1223 37.5 50.625V35.625Z" fill="white"/>
</svg>
