<svg width="60" height="60" viewBox="0 0 60 60" fill="none" xmlns="http://www.w3.org/2000/svg">
<g clip-path="url(#clip0_2_137)">
<path d="M52.5 3.75C53.4946 3.75 54.4484 4.14509 55.1516 4.84835C55.8549 5.55161 56.25 6.50544 56.25 7.5V52.5C56.25 53.4946 55.8549 54.4484 55.1516 55.1516C54.4484 55.8549 53.4946 56.25 52.5 56.25H7.5C6.50544 56.25 5.55161 55.8549 4.84835 55.1516C4.14509 54.4484 3.75 53.4946 3.75 52.5V7.5C3.75 6.50544 4.14509 5.55161 4.84835 4.84835C5.55161 4.14509 6.50544 3.75 7.5 3.75H52.5ZM7.5 0C5.51088 0 3.60322 0.790176 2.1967 2.1967C0.790176 3.60322 0 5.51088 0 7.5L0 52.5C0 54.4891 0.790176 56.3968 2.1967 57.8033C3.60322 59.2098 5.51088 60 7.5 60H52.5C54.4891 60 56.3968 59.2098 57.8033 57.8033C59.2098 56.3968 60 54.4891 60 52.5V7.5C60 5.51088 59.2098 3.60322 57.8033 2.1967C56.3968 0.790176 54.4891 0 52.5 0L7.5 0Z" fill="#00A118"/>
<path d="M41.1375 18.6375C41.6623 18.1172 42.3708 17.8244 43.1098 17.8224C43.8487 17.8204 44.5588 18.1092 45.0865 18.6266C45.6141 19.1439 45.917 19.8481 45.9296 20.587C45.9422 21.3258 45.6635 22.0399 45.1538 22.575L30.1838 41.2875C29.9265 41.5646 29.616 41.787 29.2708 41.9413C28.9256 42.0957 28.5528 42.1789 28.1747 42.1859C27.7966 42.1929 27.421 42.1236 27.0703 41.9821C26.7197 41.8406 26.4011 41.6299 26.1338 41.3624L16.215 31.44C15.9387 31.1825 15.7171 30.872 15.5633 30.527C15.4096 30.182 15.327 29.8095 15.3203 29.4319C15.3136 29.0543 15.3831 28.6792 15.5246 28.329C15.666 27.9788 15.8765 27.6606 16.1436 27.3936C16.4107 27.1265 16.7288 26.9159 17.079 26.7745C17.4292 26.633 17.8043 26.5636 18.182 26.5702C18.5596 26.5769 18.932 26.6596 19.277 26.8133C19.622 26.967 19.9325 27.1886 20.19 27.465L28.0425 35.3137L41.0663 18.72L41.1375 18.6375Z" fill="#00A118"/>
</g>
<defs>
<clipPath id="clip0_2_137">
<rect width="60" height="60" fill="white"/>
</clipPath>
</defs>
</svg>
