<svg width="60" height="60" viewBox="0 0 60 60" fill="none" xmlns="http://www.w3.org/2000/svg">
<g clip-path="url(#clip0_2_123)">
<path d="M0 7.5C0 5.51088 0.790176 3.60322 2.1967 2.1967C3.60322 0.790176 5.51088 0 7.5 0L52.5 0C54.4891 0 56.3968 0.790176 57.8033 2.1967C59.2098 3.60322 60 5.51088 60 7.5V52.5C60 54.4891 59.2098 56.3968 57.8033 57.8033C56.3968 59.2098 54.4891 60 52.5 60H7.5C5.51088 60 3.60322 59.2098 2.1967 57.8033C0.790176 56.3968 0 54.4891 0 52.5V7.5ZM56.25 15H41.25V26.25H56.25V15ZM56.25 30H41.25V41.25H56.25V30ZM56.25 45H41.25V56.25H52.5C53.4946 56.25 54.4484 55.8549 55.1516 55.1516C55.8549 54.4484 56.25 53.4946 56.25 52.5V45ZM37.5 56.25V45H22.5V56.25H37.5ZM18.75 56.25V45H3.75V52.5C3.75 53.4946 4.14509 54.4484 4.84835 55.1516C5.55161 55.8549 6.50544 56.25 7.5 56.25H18.75ZM3.75 41.25H18.75V30H3.75V41.25ZM3.75 26.25H18.75V15H3.75V26.25ZM22.5 15V26.25H37.5V15H22.5ZM37.5 30H22.5V41.25H37.5V30Z" fill="white"/>
</g>
<defs>
<clipPath id="clip0_2_123">
<rect width="60" height="60" fill="white"/>
</clipPath>
</defs>
</svg>
